<?xml version="1.0" encoding="utf-8" ?>
<svg xmlns="http://www.w3.org/2000/svg" xmlns:xlink="http://www.w3.org/1999/xlink" width="48" height="48" viewBox="0 0 48 48">
	<defs>
		<clipPath id="clipPath0498115134">
			<path d="M0 0L48 0L48 48L0 48L0 0Z" fill-rule="nonzero" transform="matrix(1 0 0 1 0 0)"/>
		</clipPath>
	</defs>
	<g clip-path="url(#clipPath0498115134)">
		<defs>
			<clipPath id="clipPath3225189402">
				<path d="M0 0L48 0L48 48L0 48L0 0Z" fill-rule="nonzero" transform="matrix(1 0 0 1 -0 -0)"/>
			</clipPath>
		</defs>
		<g clip-path="url(#clipPath3225189402)">
			<path d="M2.5 0C3.88071 0 5 1.11929 5 2.5C5 3.88071 3.88071 5 2.5 5C1.11929 5 0 3.88071 0 2.5C0 1.11929 1.11929 0 2.5 0Z" fill-rule="nonzero" transform="matrix(1 0 0 1 26.5 18.5)" fill="rgb(255, 127, 127)"/>
			<path d="M2.5 0C3.88071 0 5 1.11929 5 2.5C5 3.88071 3.88071 5 2.5 5C1.11929 5 0 3.88071 0 2.5C0 1.11929 1.11929 0 2.5 0Z" fill-rule="nonzero" transform="matrix(1 0 0 1 16.5 18.5)" fill="rgb(255, 127, 127)"/>
			<path d="M43.88 19.32C43.96 18.9 44 18.46 44 18C44 17.54 43.96 17.1 43.88 16.68C43.6239 15.1742 42.9892 13.8498 41.976 12.7069C40.9629 11.5639 39.7242 10.7749 38.26 10.34C37.7332 9.23254 37.1011 8.18887 36.3637 7.20899C35.6262 6.22911 34.7983 5.33278 33.88 4.52C30.72 1.7 26.56 0 22 0C17.44 0 13.28 1.7 10.12 4.52C8.28 6.14 6.78 8.12 5.74 10.34C4.27396 10.772 3.03404 11.5598 2.02022 12.7035C1.0064 13.8472 0.372994 15.1727 0.12 16.68C0.0400001 17.1 0 17.54 0 18C0 18.46 0.0400001 18.9 0.12 19.32C0.376124 20.8258 1.01078 22.1502 2.02396 23.2931C3.03715 24.4361 4.27582 25.2251 5.74 25.66C6.25994 26.7605 6.88531 27.7974 7.61612 28.7707C8.34694 29.744 9.16823 30.6337 10.08 31.44C13.24 34.28 17.42 36 22 36C26.58 36 30.76 34.28 33.94 31.44C35.74 29.84 37.24 27.86 38.28 25.66C39.7416 25.224 40.9773 24.4343 41.987 23.2912C42.9968 22.148 43.6278 20.8243 43.88 19.32ZM36 22C35.8 22 35.62 21.96 35.42 21.94C35.02 23.28 34.44 24.52 33.7 25.66C31.2 29.48 26.9 32 22 32C17.1 32 12.8 29.48 10.3 25.66C9.56 24.52 8.98 23.28 8.58 21.94C8.38 21.96 8.2 22 8 22C5.8 22 4 20.2 4 18C4 15.8 5.8 14 8 14C8.2 14 8.38 14.04 8.58 14.06C8.98 12.72 9.56 11.48 10.3 10.34C12.8 6.52 17.1 4 22 4C26.9 4 31.2 6.52 33.7 10.34C34.44 11.48 35.02 12.72 35.42 14.06C35.62 14.04 35.8 14 36 14C38.2 14 40 15.8 40 18C40 20.2 38.2 22 36 22ZM13 22C14.52 25.54 17.98 28 22 28C26.02 28 29.48 25.54 31 22L13 22Z" fill-rule="nonzero" transform="matrix(1 0 0 1 2 6)" fill="rgb(255, 127, 127)"/>
		</g>
	</g>
</svg>
