<?xml version="1.0" encoding="utf-8" ?>
<svg xmlns="http://www.w3.org/2000/svg" xmlns:xlink="http://www.w3.org/1999/xlink" width="16" height="16" viewBox="0 0 16 16">
	<defs>
		<clipPath id="clipPath7049076688">
			<path d="M0 0L16 0L16 16L0 16L0 0Z" fill-rule="nonzero" transform="matrix(1 0 0 1 -0 -0)"/>
		</clipPath>
	</defs>
	<g clip-path="url(#clipPath7049076688)">
		<path d="M7.75 0C3.46875 0 0 3.46875 0 7.75C0 12.0312 3.46875 15.5 7.75 15.5C12.0312 15.5 15.5 12.0312 15.5 7.75C15.5 3.46875 12.0312 0 7.75 0ZM10.6403 9.78125L10.0153 10.5625C9.92906 10.6703 9.81732 10.7319 9.68009 10.7471C9.54285 10.7624 9.42032 10.7269 9.3125 10.6406L7.21875 9.08687C7.07058 8.96825 6.95541 8.82338 6.87323 8.65229C6.79105 8.48119 6.74998 8.30074 6.75 8.11094L6.75 3.25C6.75 3.11193 6.79882 2.99408 6.89645 2.89645C6.99408 2.79882 7.11193 2.75 7.25 2.75L8.25 2.75C8.38807 2.75 8.50592 2.79882 8.60355 2.89645C8.70118 2.99408 8.75 3.11193 8.75 3.25L8.75 7.75L10.5625 9.07812C10.6704 9.16443 10.7319 9.27624 10.7471 9.41356C10.7623 9.55088 10.7267 9.67344 10.6403 9.78125Z" fill-rule="nonzero" transform="matrix(1 0 0 1 0.25 0.25)" fill="rgb(255, 127, 127)"/>
	</g>
</svg>
