<?xml version="1.0" encoding="utf-8" ?>
<svg xmlns="http://www.w3.org/2000/svg" xmlns:xlink="http://www.w3.org/1999/xlink" width="32" height="32" viewBox="0 0 32 32">
	<defs>
		<clipPath id="clipPath1658922137">
			<path d="M0 0L32 0L32 32L0 32L0 0Z" fill-rule="nonzero" transform="matrix(1 0 0 1 0 0)"/>
		</clipPath>
	</defs>
	<g clip-path="url(#clipPath1658922137)">
		<defs>
			<clipPath id="clipPath2001368292">
				<path d="M0 0L32 0L32 32L0 32L0 0Z" fill-rule="nonzero" transform="matrix(1 0 0 1 -0 -0)"/>
			</clipPath>
		</defs>
		<g clip-path="url(#clipPath2001368292)">
			<path d="M24 0L2.66667 0C1.2 0 0.0133333 1.2 0.0133333 2.66667L0 26.6667L5.33333 21.3333L24 21.3333C25.4667 21.3333 26.6667 20.1333 26.6667 18.6667L26.6667 2.66667C26.6667 1.2 25.4667 0 24 0ZM5.33333 9.33333L21.3333 9.33333L21.3333 12L5.33333 12L5.33333 9.33333ZM16 16L5.33333 16L5.33333 13.3333L16 13.3333L16 16ZM21.3333 8L5.33333 8L5.33333 5.33333L21.3333 5.33333L21.3333 8Z" fill-rule="nonzero" transform="matrix(1 0 0 1 2.66667 2.66667)" fill="rgb(255, 127, 127)"/>
		</g>
	</g>
</svg>
