<?xml version="1.0" encoding="utf-8" ?>
<svg xmlns="http://www.w3.org/2000/svg" xmlns:xlink="http://www.w3.org/1999/xlink" width="32" height="32" viewBox="0 0 32 32">
	<defs>
		<clipPath id="clipPath4550620143">
			<path d="M0 0L32 0L32 32L0 32L0 0Z" fill-rule="nonzero" transform="matrix(1 0 0 1 0 0)"/>
		</clipPath>
	</defs>
	<g clip-path="url(#clipPath4550620143)">
		<defs>
			<clipPath id="clipPath2845834214">
				<path d="M0 0L32 0L32 32L0 32L0 0Z" fill-rule="nonzero" transform="matrix(1 0 0 1 -0 -0)"/>
			</clipPath>
		</defs>
		<g clip-path="url(#clipPath2845834214)">
			<path d="M29 0L21 0C19.3438 0 18 1.34375 18 3L18 11C18 12.6562 19.3438 14 21 14L26 14L26 18C26 20.2062 24.2062 22 22 22L21.5 22C20.6688 22 20 22.6688 20 23.5L20 26.5C20 27.3312 20.6688 28 21.5 28L22 28C27.525 28 32 23.525 32 18L32 3C32 1.34375 30.6562 0 29 0ZM11 0L3 0C1.34375 0 0 1.34375 0 3L0 11C0 12.6562 1.34375 14 3 14L8 14L8 18C8 20.2062 6.20625 22 4 22L3.5 22C2.66875 22 2 22.6688 2 23.5L2 26.5C2 27.3312 2.66875 28 3.5 28L4 28C9.525 28 14 23.525 14 18L14 3C14 1.34375 12.6562 0 11 0Z" fill-rule="nonzero" transform="matrix(1 0 0 1 0 2)" fill="rgb(255, 127, 127)"/>
		</g>
	</g>
</svg>
