<?xml version="1.0" encoding="utf-8" ?>
<svg xmlns="http://www.w3.org/2000/svg" xmlns:xlink="http://www.w3.org/1999/xlink" width="14.8613" height="12.6436" viewBox="0 0 14.8613 12.6436">
	<path d="M6.63335 0.439819L4.81946 3.70896L0.761124 4.23488C0.0333466 4.32871 -0.25832 5.12624 0.269458 5.58303L3.20557 8.12624L2.51112 11.7188C2.38612 12.3682 3.15557 12.8546 3.80001 12.5509L7.43057 10.8546L11.0611 12.5509C11.7056 12.8522 12.475 12.3682 12.35 11.7188L11.6556 8.12624L14.5917 5.58303C15.1195 5.12624 14.8278 4.32871 14.1 4.23488L10.0417 3.70896L8.22779 0.439819C7.90279 -0.142897 6.96112 -0.150304 6.63335 0.439819Z" fill-rule="nonzero" transform="matrix(1 0 0 1 9.15527e-05 -0.000217021)" fill="rgb(250, 204, 21)"/>
</svg>
